<svg xmlns="http://www.w3.org/2000/svg" width="184" height="23" viewBox="0 0 184 23">
    <g fill="none" fill-rule="evenodd">
        <path fill="#22D372" d="M9.232 10.758a4.706 4.706 0 0 1-1.023-.59 4.026 4.026 0 0 1-.72-.631c-.172-.211-.287-.351-.33-.422a3.93 3.93 0 0 1-.332-.379l-.705-.87c-.288-.35-.59-.744-.892-1.165-.303-.421-.763-.968-1.325-1.684A387.59 387.59 0 0 1 .781 1.058c-.086 0-.13-.182-.13-.393A.583.583 0 0 1 .854.202a.744.744 0 0 1 .504-.196h5.154a1.453 1.453 0 0 1 1.324.617l5.614 7.019c.056.019.117.019.173 0a.16.16 0 0 0 .127-.045.152.152 0 0 0 .046-.124V.82a.844.844 0 0 1 .23-.59.862.862 0 0 1 .62-.224h2.432c.8-.033 1.57.287 2.102.87.526.525.821 1.23.82 1.965v19.357a.708.708 0 0 1-.259.575.832.832 0 0 1-.59.225h-4.506a.862.862 0 0 1-.619-.225.79.79 0 0 1-.23-.575V14.87c0-.14 0-.197-.173-.197h-.173l-.345.463-.705.885-.879 1.15-1.252 1.559-2.88 3.635c-.311.421-.82.659-1.352.632H.753c-.2 0-.395-.07-.548-.197a.68.68 0 0 1-.201-.463.51.51 0 0 1 .13-.407l7.068-9.208.446-.421c.23-.218.475-.42.734-.604.301-.206.625-.38.965-.52.362-.158.754-.239 1.151-.238-.43.017-.86-.045-1.266-.182z"/>
        <path fill="#525266" d="M24.01 14.079V2.808c-.007-.406.08-.808.256-1.176a3.08 3.08 0 0 1 .696-.885 3.14 3.14 0 0 1 .937-.553c.32-.124.662-.19 1.007-.194h2.47a.849.849 0 0 1 .625.25c.167.154.26.37.255.594V14.01a4.4 4.4 0 0 0 .909 2.945 3.57 3.57 0 0 0 2.839 1.093 3.439 3.439 0 0 0 2.839-1.107 4.441 4.441 0 0 0 .908-2.931V2.808c-.007-.418.09-.83.284-1.203.172-.336.408-.636.696-.886.277-.231.594-.414.937-.539.32-.11.654-.17.993-.18h2.47a.82.82 0 0 1 .61.25c.167.154.26.37.256.594v13.22a10.484 10.484 0 0 1-.696 4.012 7.144 7.144 0 0 1-2.03 2.765 8.908 8.908 0 0 1-3.15 1.632c-1.34.364-2.726.54-4.117.526a15.29 15.29 0 0 1-4.117-.512 8.667 8.667 0 0 1-3.193-1.632 7.258 7.258 0 0 1-2.059-2.766 10.21 10.21 0 0 1-.624-4.01zM65.935 15.942a5.81 5.81 0 0 1-.921 3.325 7.049 7.049 0 0 1-2.371 2.18c-1 .557-2.082.957-3.209 1.185-1.132.24-2.287.363-3.446.368a21.016 21.016 0 0 1-2.399-.15 12.627 12.627 0 0 1-2.413-.518 10.42 10.42 0 0 1-2.204-1.022 6.21 6.21 0 0 1-1.758-1.58A5.23 5.23 0 0 1 46 16.555a.647.647 0 0 1 .195-.477.862.862 0 0 1 .53-.204h4.325c.475-.032.93.193 1.186.586a3.048 3.048 0 0 0 1.59 1.362 6.255 6.255 0 0 0 2.162.368 8.807 8.807 0 0 0 1.172-.095 4.75 4.75 0 0 0 1.172-.286 2.8 2.8 0 0 0 .963-.586c.265-.281.405-.654.39-1.036a1.356 1.356 0 0 0-.697-1.226 7.153 7.153 0 0 0-1.395-.627 25.395 25.395 0 0 0-1.298-.354l-1.8-.423a24.583 24.583 0 0 1-2.915-.694 9.269 9.269 0 0 1-2.51-1.213A5.851 5.851 0 0 1 47.297 9.7a5.614 5.614 0 0 1-.684-2.902 5.62 5.62 0 0 1 .837-3.12 6.593 6.593 0 0 1 2.162-2.112 8.988 8.988 0 0 1 2.93-1.2A14.652 14.652 0 0 1 55.765 0c.767.004 1.532.068 2.288.19.767.136 1.519.341 2.246.614a9.842 9.842 0 0 1 2.023 1.063c.624.43 1.179.949 1.646 1.54.69.804 1.104 1.8 1.185 2.847a.806.806 0 0 1-.195.518.678.678 0 0 1-.488.19h-4.52a1.25 1.25 0 0 1-1.116-.572 1.858 1.858 0 0 0-.46-.763 2.479 2.479 0 0 0-.781-.477 4.175 4.175 0 0 0-.893-.258 5.18 5.18 0 0 0-.893-.082 8.48 8.48 0 0 0-1.004.068c-.321.038-.633.13-.921.272-.27.137-.504.333-.684.573a1.63 1.63 0 0 0-.214 1.372c.136.466.475.85.926 1.053 1.165.497 2.388.853 3.64 1.063 1.045.167 2.079.39 3.098.668.955.255 1.866.645 2.706 1.158 1.741 1.031 2.756 2.919 2.636 4.905h-.055zM68.003 22.131V2.87a2.802 2.802 0 0 1 .864-2.043 2.784 2.784 0 0 1 1.994-.825h2.427a.807.807 0 0 1 .613.238c.166.16.257.384.251.615v7.638a.784.784 0 0 0 .39.77c.191.116.406.188.628.21 1.137.02 2.272-.08 3.388-.294.91-.195 1.797-.481 2.65-.854.174-.092.33-.215.46-.363a.897.897 0 0 0 .195-.588V2.87a2.904 2.904 0 0 1 .237-1.175c.157-.34.38-.644.656-.896.275-.238.585-.431.92-.573a2.781 2.781 0 0 1 1.046-.21h2.426a.793.793 0 0 1 .6.238c.166.16.257.384.25.615v21.263a.799.799 0 0 1-.236.616.863.863 0 0 1-.614.21h-4.434a.835.835 0 0 1-.586-.224.742.742 0 0 1-.265-.602v-7.806a.784.784 0 0 0-.32-.699 1.183 1.183 0 0 0-.67-.21.917.917 0 0 0-.32 0c-1.058.302-2.14.503-3.236.602-.954.1-1.913.151-2.872.154h-1.116a6.95 6.95 0 0 1-.725 0c.427.062.818.276 1.102.601.286.302.446.703.446 1.12v6.28a.799.799 0 0 1-.237.616.89.89 0 0 1-.627.21h-4.463a.793.793 0 0 1-.822-.868z"/>
        <path fill="#525266" fill-rule="nonzero" d="M97 22.2V2.876a2.687 2.687 0 0 1 .89-2.062A2.831 2.831 0 0 1 99.894 0h6.676a15.61 15.61 0 0 1 4.093.505 9.04 9.04 0 0 1 3.274 1.614 7.893 7.893 0 0 1 2.202 2.806c.559 1.28.852 2.66.861 4.055v5.01c-.198 6.005-3.618 9.008-10.26 9.008h-8.906a.807.807 0 0 1-.593-.224.811.811 0 0 1-.24-.576zm9.57-4.098a4.051 4.051 0 0 0 3.12-1.038 4.529 4.529 0 0 0 1.001-3.115v-1.08-1.404-1.403-1.08a3.748 3.748 0 0 0-1.114-3.08 3.796 3.796 0 0 0-3.12-1.046h-5.067a1.74 1.74 0 0 1 1.299.547c.325.308.513.732.522 1.179v10.426c-.007.27.095.533.282.73.197.197.468.304.748.294l2.329.07z"/>
        <path fill="#525266" d="M120.002 22.157V2.81c-.017-.782.32-1.535.932-2.078a3.3 3.3 0 0 1 2.199-.73h14.66c.502.027.902.395.932.856v3.215a.628.628 0 0 1-.29.562.912.912 0 0 1-.642.239h-13.3a1.879 1.879 0 0 1 1.42.561c.353.325.556.763.564 1.222V8.06c.003.256.1.503.275.702.208.224.52.344.84.323h7.788a.886.886 0 0 1 .709.219c.186.17.274.412.238.651v2.977a.736.736 0 0 1-.245.641.887.887 0 0 1-.702.215h-10.888a2 2 0 0 1 1.405.52c.359.31.568.74.58 1.193v1.558c0 .258.11.505.306.688.197.224.497.348.81.337h10.475a.961.961 0 0 1 .657.239.81.81 0 0 1 .275.618v3.243a.707.707 0 0 1-.29.59.963.963 0 0 1-.642.224h-17.165a.948.948 0 0 1-.656-.224.764.764 0 0 1-.245-.618zM160.905 15.94a5.816 5.816 0 0 1-.92 3.325 7.003 7.003 0 0 1-2.356 2.181c-1.002.56-2.089.96-3.22 1.186-1.13.24-2.285.364-3.442.368a21.175 21.175 0 0 1-2.398-.15 13.073 13.073 0 0 1-2.411-.518 10.63 10.63 0 0 1-2.188-1.022 5.848 5.848 0 0 1-1.757-1.581 5.058 5.058 0 0 1-1.212-3.176.606.606 0 0 1 .195-.477.832.832 0 0 1 .516-.204h4.335c.23-.01.46.037.669.136.202.113.377.266.515.45.345.626.91 1.11 1.59 1.363a6.172 6.172 0 0 0 2.146.368c.373-.003.745-.03 1.115-.082a4.842 4.842 0 0 0 1.185-.286c.353-.13.675-.33.947-.586.274-.276.416-.653.39-1.036.02-.5-.241-.972-.682-1.227a6.876 6.876 0 0 0-1.394-.627c-.349-.109-.78-.231-1.296-.354l-1.784-.423a25.467 25.467 0 0 1-2.928-.736 9.665 9.665 0 0 1-2.508-1.213 6.002 6.002 0 0 1-1.77-1.949 5.754 5.754 0 0 1-.67-2.903 5.627 5.627 0 0 1 .837-3.121 6.548 6.548 0 0 1 2.146-2.113 9.18 9.18 0 0 1 2.969-1.158 14.062 14.062 0 0 1 5.575-.177c.771.133 1.527.339 2.258.613.709.278 1.382.635 2.008 1.063.63.426 1.19.946 1.658 1.54a5.064 5.064 0 0 1 1.185 2.849.888.888 0 0 1-.195.518.734.734 0 0 1-.502.19h-4.558a1.29 1.29 0 0 1-1.115-.572 1.601 1.601 0 0 0-.46-.763 2.419 2.419 0 0 0-.766-.477 4.254 4.254 0 0 0-.906-.26 5.014 5.014 0 0 0-.879-.08c-.335.002-.67.024-1.003.067-.32.038-.632.13-.92.273a1.997 1.997 0 0 0-.697.572 1.658 1.658 0 0 0-.2 1.37 1.7 1.7 0 0 0 .91 1.056c1.165.497 2.387.854 3.639 1.064 1.048.166 2.085.389 3.108.667.954.256 1.865.646 2.704 1.159 1.742 1.029 2.752 2.92 2.62 4.907l-.083-.014z"/>
        <path fill="#22D372" d="M174.248 11.22c.363.134.71.304 1.035.505.268.18.52.383.75.604.21.197.345.351.45.463l7.38 9.111c.098.115.146.26.136.407a.667.667 0 0 1-.21.463.745.745 0 0 1-.57.225h-5.506a2.078 2.078 0 0 1-.795-.168 1.167 1.167 0 0 1-.615-.492l-3-3.636-1.305-1.53-.915-1.095-.735-.87-.36-.463a.169.169 0 0 0-.15-.07c-.135 0-.21 0-.21.168v7.328a.733.733 0 0 1-.24.561.773.773 0 0 1-.645.267h-3.91c-.235.001-.28-.006-.438-.168-.175-.147-.36-.44-.357-.66V2.867c-.008-.744-.199-1.461.357-1.993.564-.586 1.001-.905 1.843-.87h2.505a.842.842 0 0 1 .645.224c.168.171.255.4.24.632V7.5a.176.176 0 0 0 .057.144c.04.037.096.057.153.052a.15.15 0 0 0 .15-.098l5.85-6.935a1.533 1.533 0 0 1 1.38-.66h5.4a.651.651 0 0 1 .495.197.665.665 0 0 1 .21.491.525.525 0 0 1-.135.393l-3.255 3.931-1.395 1.685-.93 1.165-.72.884c-.104.14-.22.27-.345.393a4.17 4.17 0 0 1-.345.407c-.226.23-.478.437-.75.618a5.65 5.65 0 0 1-1.065.604 3.53 3.53 0 0 1-1.335.238c.411-.003.819.069 1.2.211z"/>
    </g>
</svg>
